<?xml version="1.0" encoding="iso-8859-1"?>
<svg xmlns="http://www.w3.org/2000/svg" height="511pt" version="1.1" viewBox="-5 0 511 511.99988" width="511pt">
<g id="surface1">
<path d="M 501.796875 261.339844 C 501.796875 399.769531 389.578125 511.988281 251.148438 511.988281 C 112.71875 511.988281 0.5 399.769531 0.5 261.339844 C 0.5 122.910156 112.71875 10.691406 251.148438 10.691406 C 389.578125 10.691406 501.796875 122.910156 501.796875 261.339844 Z M 501.796875 261.339844 " style=" stroke:none;fill-rule:nonzero;fill:rgb(100%,80.392157%,21.960784%);fill-opacity:1;" />
<path d="M 81.34375 445.6875 C 177.222656 534.046875 324.949219 534.160156 420.953125 445.6875 Z M 81.34375 445.6875 " style=" stroke:none;fill-rule:nonzero;fill:rgb(100%,52.156863%,0%);fill-opacity:1;" />
<path d="M 290.78125 445.6875 L 81.34375 445.6875 C 135.246094 495.363281 207.441406 518.742188 280.296875 510.300781 C 246.648438 500.648438 251.078125 445.6875 290.78125 445.6875 Z M 290.78125 445.6875 " style=" stroke:none;fill-rule:nonzero;fill:rgb(100%,40.392157%,0%);fill-opacity:1;" />
<path d="M 323.472656 70.800781 L 359.40625 70.800781 L 359.40625 118.753906 L 323.472656 118.753906 Z M 323.472656 70.800781 " style=" stroke:none;fill-rule:nonzero;fill:rgb(27.843137%,28.627451%,47.45098%);fill-opacity:1;" />
<path d="M 52.191406 144.582031 L 450.109375 144.582031 L 450.109375 291.648438 L 52.191406 291.648438 Z M 52.191406 144.582031 " style=" stroke:none;fill-rule:nonzero;fill:rgb(39.215686%,40.392157%,61.176471%);fill-opacity:1;" />
<path d="M 52.191406 144.582031 L 251.3125 144.582031 L 251.3125 291.648438 L 52.191406 291.648438 Z M 52.191406 144.582031 " style=" stroke:none;fill-rule:nonzero;fill:rgb(27.843137%,28.627451%,47.45098%);fill-opacity:1;" />
<path d="M 3.640625 287.984375 C 3.054688 287.984375 2.480469 288.042969 1.929688 288.15625 C 7.78125 343.175781 31.4375 392.871094 67.023438 431.386719 L 435.273438 431.386719 C 470.859375 392.871094 494.511719 343.175781 500.367188 288.15625 C 499.8125 288.042969 499.242188 287.984375 498.660156 287.984375 Z M 3.640625 287.984375 " style=" stroke:none;fill-rule:nonzero;fill:rgb(39.215686%,40.392157%,61.176471%);fill-opacity:1;" />
<path d="M 270.21875 429.757812 C 259.589844 429.902344 251.148438 421.324219 251.148438 410.953125 C 251.148438 400.5625 259.574219 392.136719 269.964844 392.136719 C 270.050781 392.136719 270.132812 392.148438 270.21875 392.148438 L 270.21875 287.984375 L 3.640625 287.984375 C 3.054688 287.984375 2.484375 288.042969 1.929688 288.15625 C 7.78125 343.175781 31.4375 392.871094 67.023438 431.382812 L 270.21875 431.382812 Z M 270.21875 429.757812 " style=" stroke:none;fill-rule:nonzero;fill:rgb(27.843137%,28.627451%,47.45098%);fill-opacity:1;" />
<path d="M 473.410156 130.28125 C 473.410156 120.355469 465.367188 112.3125 455.445312 112.3125 L 46.855469 112.3125 C 36.929688 112.3125 28.886719 120.355469 28.886719 130.28125 C 28.886719 140.203125 36.929688 148.246094 46.855469 148.246094 L 455.445312 148.246094 C 465.367188 148.246094 473.410156 140.203125 473.410156 130.28125 Z M 473.410156 130.28125 " style=" stroke:none;fill-rule:nonzero;fill:rgb(48.627451%,50.588235%,72.54902%);fill-opacity:1;" />
<path d="M 233.347656 130.28125 C 233.347656 120.355469 241.390625 112.3125 251.3125 112.3125 L 46.855469 112.3125 C 36.929688 112.3125 28.886719 120.355469 28.886719 130.28125 C 28.886719 140.203125 36.929688 148.246094 46.855469 148.246094 L 251.3125 148.246094 C 241.390625 148.246094 233.347656 140.203125 233.347656 130.28125 Z M 233.347656 130.28125 " style=" stroke:none;fill-rule:nonzero;fill:rgb(39.215686%,40.392157%,61.176471%);fill-opacity:1;" />
<path d="M 409.042969 181.964844 L 273.835938 181.964844 C 269.777344 181.964844 266.488281 185.253906 266.488281 189.3125 L 266.488281 246.914062 C 266.488281 250.972656 269.78125 254.261719 273.835938 254.261719 L 409.042969 254.261719 C 413.101562 254.261719 416.390625 250.972656 416.390625 246.914062 L 416.390625 189.3125 C 416.390625 185.257812 413.097656 181.964844 409.042969 181.964844 Z M 409.042969 181.964844 " style=" stroke:none;fill-rule:nonzero;fill:rgb(100%,80.392157%,21.960784%);fill-opacity:1;" />
<path d="M 320.8125 246.917969 L 320.8125 189.3125 C 320.8125 185.257812 324.101562 181.96875 328.15625 181.96875 L 273.835938 181.96875 C 269.777344 181.96875 266.488281 185.257812 266.488281 189.3125 L 266.488281 246.917969 C 266.488281 250.976562 269.78125 254.261719 273.835938 254.261719 L 328.15625 254.261719 C 324.101562 254.261719 320.8125 250.972656 320.8125 246.917969 Z M 320.8125 246.917969 " style=" stroke:none;fill-rule:nonzero;fill:rgb(100%,67.45098%,0%);fill-opacity:1;" />
<path d="M 409.042969 3.992188 L 273.835938 3.992188 C 269.777344 3.992188 266.488281 7.28125 266.488281 11.339844 L 266.488281 68.941406 C 266.488281 73 269.78125 76.289062 273.835938 76.289062 L 409.042969 76.289062 C 413.101562 76.289062 416.390625 73 416.390625 68.941406 L 416.390625 11.339844 C 416.390625 7.28125 413.097656 3.992188 409.042969 3.992188 Z M 409.042969 3.992188 " style=" stroke:none;fill-rule:nonzero;fill:rgb(39.215686%,40.392157%,61.176471%);fill-opacity:1;" />
<path d="M 323.472656 68.941406 L 323.472656 11.339844 C 323.472656 7.28125 326.761719 3.992188 330.820312 3.992188 L 273.835938 3.992188 C 269.777344 3.992188 266.488281 7.28125 266.488281 11.339844 L 266.488281 68.941406 C 266.488281 73 269.78125 76.289062 273.835938 76.289062 L 330.820312 76.289062 C 326.761719 76.289062 323.472656 73 323.472656 68.941406 Z M 323.472656 68.941406 " style=" stroke:none;fill-rule:nonzero;fill:rgb(27.843137%,28.627451%,47.45098%);fill-opacity:1;" />
<path d="M 377.59375 49.296875 L 305.285156 49.296875 C 300.226562 49.296875 296.128906 45.199219 296.128906 40.140625 C 296.128906 35.082031 300.226562 30.980469 305.285156 30.980469 L 377.59375 30.980469 C 382.652344 30.980469 386.753906 35.082031 386.753906 40.140625 C 386.753906 45.199219 382.652344 49.296875 377.59375 49.296875 Z M 377.59375 49.296875 " style=" stroke:none;fill-rule:nonzero;fill:rgb(35.686275%,70.980392%,90.588235%);fill-opacity:1;" />
<path d="M 314.09375 40.140625 C 314.09375 35.085938 318.195312 30.984375 323.25 30.984375 L 305.285156 30.984375 C 300.230469 30.984375 296.128906 35.082031 296.128906 40.140625 C 296.128906 45.199219 300.226562 49.296875 305.285156 49.296875 L 323.25 49.296875 C 318.195312 49.296875 314.09375 45.199219 314.09375 40.140625 Z M 314.09375 40.140625 " style=" stroke:none;fill-rule:nonzero;fill:rgb(27.843137%,58.823529%,80.392157%);fill-opacity:1;" />
<path d="M 209.726562 0.9375 C 208.148438 0.363281 206.28125 0 203.90625 0 C 192.800781 0 192.800781 7.984375 181.695312 7.984375 C 170.585938 7.984375 170.585938 0 159.476562 0 C 148.367188 0 148.367188 7.984375 137.257812 7.984375 C 126.148438 7.984375 126.148438 0 115.039062 0 C 111.65625 0 109.300781 0.738281 107.351562 1.765625 C 104.332031 3.359375 102.496094 6.550781 102.496094 9.964844 L 102.496094 254.261719 L 215.96875 254.261719 L 215.96875 10.050781 C 215.96875 6.015625 213.515625 2.320312 209.726562 0.9375 Z M 209.726562 0.9375 " style=" stroke:none;fill-rule:nonzero;fill:rgb(98.823529%,95.686275%,87.058824%);fill-opacity:1;" />
<path d="M 135.167969 15.113281 C 135.167969 12.316406 136.410156 9.6875 138.511719 7.945312 C 138.109375 7.96875 137.695312 7.984375 137.257812 7.984375 C 126.148438 7.984375 126.148438 0 115.039062 0 C 111.65625 0 109.300781 0.738281 107.351562 1.765625 C 104.332031 3.359375 102.496094 6.550781 102.496094 9.964844 L 102.496094 254.261719 L 135.167969 254.261719 Z M 135.167969 15.113281 " style=" stroke:none;fill-rule:nonzero;fill:rgb(100%,93.72549%,74.509804%);fill-opacity:1;" />
<path d="M 63.707031 427.722656 C 75.546875 441.046875 88.78125 453.101562 103.1875 463.652344 L 399.113281 463.652344 C 413.515625 453.101562 426.753906 441.046875 438.589844 427.722656 Z M 63.707031 427.722656 " style=" stroke:none;fill-rule:nonzero;fill:rgb(48.627451%,50.588235%,72.54902%);fill-opacity:1;" />
<path d="M 33.886719 287.984375 L 33.886719 383.097656 C 33.886719 389.222656 38.851562 394.1875 44.976562 394.1875 L 457.324219 394.1875 C 463.445312 394.1875 468.410156 389.222656 468.410156 383.097656 L 468.410156 287.984375 Z M 33.886719 287.984375 " style=" stroke:none;fill-rule:nonzero;fill:rgb(27.843137%,28.627451%,47.45098%);fill-opacity:1;" />
<path d="M 251.3125 383.097656 L 251.3125 287.984375 L 33.886719 287.984375 L 33.886719 383.097656 C 33.886719 389.222656 38.851562 394.1875 44.976562 394.1875 L 262.402344 394.1875 C 256.277344 394.1875 251.3125 389.222656 251.3125 383.097656 Z M 251.3125 383.097656 " style=" stroke:none;fill-rule:nonzero;fill:rgb(21.960784%,23.529412%,41.960784%);fill-opacity:1;" />
<path d="M 284.347656 367.007812 L 217.953125 367.007812 C 207.367188 367.007812 198.410156 359.921875 195.570312 350.242188 L 163.789062 350.242188 C 158.730469 350.242188 154.632812 346.144531 154.632812 341.085938 C 154.632812 336.027344 158.730469 331.925781 163.789062 331.925781 L 201.183594 331.925781 C 207.671875 331.925781 212.949219 337.203125 212.949219 343.691406 C 212.949219 346.402344 215.242188 348.695312 217.953125 348.695312 L 284.347656 348.695312 C 287.058594 348.695312 289.351562 346.402344 289.351562 343.691406 C 289.351562 337.203125 294.628906 331.925781 301.117188 331.925781 L 338.511719 331.925781 C 343.566406 331.925781 347.667969 336.027344 347.667969 341.085938 C 347.667969 346.140625 343.566406 350.242188 338.511719 350.242188 L 306.726562 350.242188 C 303.890625 359.921875 294.929688 367.007812 284.347656 367.007812 Z M 284.347656 367.007812 " style=" stroke:none;fill-rule:nonzero;fill:rgb(100%,99.607843%,100%);fill-opacity:1;" />
<path d="M 251.304688 348.695312 L 217.953125 348.695312 C 215.238281 348.695312 212.949219 346.402344 212.949219 343.691406 C 212.949219 337.207031 207.671875 331.925781 201.183594 331.925781 L 163.789062 331.929688 C 158.730469 331.929688 154.632812 336.027344 154.632812 341.085938 C 154.632812 346.144531 158.730469 350.242188 163.789062 350.242188 L 195.570312 350.242188 C 198.40625 359.921875 207.367188 367.011719 217.953125 367.011719 L 251.304688 367.011719 C 243.988281 363.09375 243.992188 352.609375 251.304688 348.695312 Z M 251.304688 348.695312 " style=" stroke:none;fill-rule:nonzero;fill:rgb(80%,90.196078%,92.941176%);fill-opacity:1;" />
<path d="M 414.636719 350.242188 L 404.917969 350.242188 C 399.859375 350.242188 395.761719 346.140625 395.761719 341.085938 C 395.761719 336.027344 399.859375 331.925781 404.917969 331.925781 L 414.636719 331.925781 C 419.691406 331.925781 423.792969 336.027344 423.792969 341.085938 C 423.792969 346.140625 419.691406 350.242188 414.636719 350.242188 Z M 414.636719 350.242188 " style=" stroke:none;fill-rule:nonzero;fill:rgb(39.215686%,40.392157%,61.176471%);fill-opacity:1;" />
<path d="M 97.378906 350.242188 L 87.664062 350.242188 C 82.605469 350.242188 78.503906 346.140625 78.503906 341.085938 C 78.503906 336.027344 82.605469 331.925781 87.664062 331.925781 L 97.378906 331.925781 C 102.4375 331.925781 106.539062 336.027344 106.539062 341.085938 C 106.539062 346.140625 102.4375 350.242188 97.378906 350.242188 Z M 97.378906 350.242188 " style=" stroke:none;fill-rule:nonzero;fill:rgb(39.215686%,40.392157%,61.176471%);fill-opacity:1;" />
<path d="M 224.1875 263.421875 L 94.277344 263.421875 C 89.21875 263.421875 85.117188 259.320312 85.117188 254.261719 C 85.117188 249.207031 89.21875 245.105469 94.277344 245.105469 L 224.1875 245.105469 C 229.246094 245.105469 233.347656 249.207031 233.347656 254.261719 C 233.347656 259.320312 229.246094 263.421875 224.1875 263.421875 Z M 224.1875 263.421875 " style=" stroke:none;fill-rule:nonzero;fill:rgb(48.627451%,50.588235%,72.54902%);fill-opacity:1;" />
<path d="M 184.214844 69.566406 L 164.355469 69.566406 C 159.300781 69.566406 155.199219 65.46875 155.199219 60.410156 C 155.199219 55.355469 159.300781 51.253906 164.355469 51.253906 L 184.214844 51.253906 C 189.273438 51.253906 193.375 55.355469 193.375 60.410156 C 193.375 65.46875 189.273438 69.566406 184.214844 69.566406 Z M 184.214844 69.566406 " style=" stroke:none;fill-rule:nonzero;fill:rgb(98.823529%,85.098039%,50.588235%);fill-opacity:1;" />
<path d="M 184.214844 107.273438 L 164.355469 107.273438 C 159.300781 107.273438 155.199219 103.175781 155.199219 98.117188 C 155.199219 93.058594 159.300781 88.960938 164.355469 88.960938 L 184.214844 88.960938 C 189.273438 88.960938 193.375 93.058594 193.375 98.117188 C 193.375 103.175781 189.273438 107.273438 184.214844 107.273438 Z M 184.214844 107.273438 " style=" stroke:none;fill-rule:nonzero;fill:rgb(98.823529%,85.098039%,50.588235%);fill-opacity:1;" />
<path d="M 184.214844 144.980469 L 164.355469 144.980469 C 159.300781 144.980469 155.199219 140.882812 155.199219 135.824219 C 155.199219 130.769531 159.300781 126.667969 164.355469 126.667969 L 184.214844 126.667969 C 189.273438 126.667969 193.375 130.769531 193.375 135.824219 C 193.375 140.882812 189.273438 144.980469 184.214844 144.980469 Z M 184.214844 144.980469 " style=" stroke:none;fill-rule:nonzero;fill:rgb(98.823529%,85.098039%,50.588235%);fill-opacity:1;" />
<path d="M 184.214844 182.6875 L 164.355469 182.6875 C 159.300781 182.6875 155.199219 178.589844 155.199219 173.53125 C 155.199219 168.476562 159.300781 164.375 164.355469 164.375 L 184.214844 164.375 C 189.273438 164.375 193.375 168.472656 193.375 173.53125 C 193.375 178.589844 189.273438 182.6875 184.214844 182.6875 Z M 184.214844 182.6875 " style=" stroke:none;fill-rule:nonzero;fill:rgb(98.823529%,85.098039%,50.588235%);fill-opacity:1;" />
<path d="M 184.214844 220.394531 L 164.355469 220.394531 C 159.300781 220.394531 155.199219 216.296875 155.199219 211.238281 C 155.199219 206.183594 159.300781 202.082031 164.355469 202.082031 L 184.214844 202.082031 C 189.273438 202.082031 193.375 206.183594 193.375 211.238281 C 193.375 216.296875 189.273438 220.394531 184.214844 220.394531 Z M 184.214844 220.394531 " style=" stroke:none;fill-rule:nonzero;fill:rgb(98.823529%,85.098039%,50.588235%);fill-opacity:1;" />
<path d="M 135.226562 69.566406 L 135.105469 69.566406 C 130.046875 69.566406 125.949219 65.46875 125.949219 60.410156 C 125.949219 55.355469 130.046875 51.253906 135.105469 51.253906 L 135.226562 51.253906 C 140.285156 51.253906 144.386719 55.355469 144.386719 60.410156 C 144.386719 65.46875 140.285156 69.566406 135.226562 69.566406 Z M 135.226562 69.566406 " style=" stroke:none;fill-rule:nonzero;fill:rgb(98.823529%,85.098039%,50.588235%);fill-opacity:1;" />
<path d="M 135.226562 107.273438 L 135.105469 107.273438 C 130.046875 107.273438 125.949219 103.175781 125.949219 98.117188 C 125.949219 93.058594 130.046875 88.960938 135.105469 88.960938 L 135.226562 88.960938 C 140.285156 88.960938 144.386719 93.058594 144.386719 98.117188 C 144.386719 103.175781 140.285156 107.273438 135.226562 107.273438 Z M 135.226562 107.273438 " style=" stroke:none;fill-rule:nonzero;fill:rgb(98.823529%,85.098039%,50.588235%);fill-opacity:1;" />
<path d="M 135.226562 144.980469 L 135.105469 144.980469 C 130.046875 144.980469 125.949219 140.882812 125.949219 135.824219 C 125.949219 130.769531 130.046875 126.667969 135.105469 126.667969 L 135.226562 126.667969 C 140.285156 126.667969 144.386719 130.769531 144.386719 135.824219 C 144.386719 140.882812 140.285156 144.980469 135.226562 144.980469 Z M 135.226562 144.980469 " style=" stroke:none;fill-rule:nonzero;fill:rgb(98.823529%,85.098039%,50.588235%);fill-opacity:1;" />
<path d="M 135.226562 182.6875 L 135.105469 182.6875 C 130.046875 182.6875 125.949219 178.589844 125.949219 173.53125 C 125.949219 168.476562 130.046875 164.375 135.105469 164.375 L 135.226562 164.375 C 140.285156 164.375 144.386719 168.472656 144.386719 173.53125 C 144.386719 178.589844 140.285156 182.6875 135.226562 182.6875 Z M 135.226562 182.6875 " style=" stroke:none;fill-rule:nonzero;fill:rgb(98.823529%,85.098039%,50.588235%);fill-opacity:1;" />
<path d="M 135.226562 220.394531 L 135.105469 220.394531 C 130.046875 220.394531 125.949219 216.296875 125.949219 211.238281 C 125.949219 206.183594 130.046875 202.082031 135.105469 202.082031 L 135.226562 202.082031 C 140.285156 202.082031 144.386719 206.183594 144.386719 211.238281 C 144.386719 216.296875 140.285156 220.394531 135.226562 220.394531 Z M 135.226562 220.394531 " style=" stroke:none;fill-rule:nonzero;fill:rgb(98.823529%,85.098039%,50.588235%);fill-opacity:1;" />
<path d="M 261.449219 427.722656 L 63.710938 427.722656 C 75.546875 441.046875 88.78125 453.101562 103.1875 463.652344 L 261.242188 463.652344 C 247.6875 455.398438 247.832031 435.800781 261.449219 427.722656 Z M 261.449219 427.722656 " style=" stroke:none;fill-rule:nonzero;fill:rgb(39.215686%,40.392157%,61.176471%);fill-opacity:1;" />
<path d="M 176 341.085938 C 176 350.34375 168.492188 357.851562 159.230469 357.851562 C 149.972656 357.851562 142.464844 350.34375 142.464844 341.085938 C 142.464844 331.824219 149.972656 324.320312 159.230469 324.320312 C 168.492188 324.320312 176 331.824219 176 341.085938 Z M 176 341.085938 " style=" stroke:none;fill-rule:nonzero;fill:rgb(65.098039%,83.921569%,92.156863%);fill-opacity:1;" />
<path d="M 359.832031 341.085938 C 359.832031 350.34375 352.328125 357.851562 343.066406 357.851562 C 333.808594 357.851562 326.300781 350.34375 326.300781 341.085938 C 326.300781 331.824219 333.808594 324.320312 343.066406 324.320312 C 352.328125 324.320312 359.832031 331.824219 359.832031 341.085938 Z M 359.832031 341.085938 " style=" stroke:none;fill-rule:nonzero;fill:rgb(65.098039%,83.921569%,92.156863%);fill-opacity:1;" />
</g>
</svg>